<svg xmlns="http://www.w3.org/2000/svg" viewBox="0 0 256 256">
  <defs>
    <linearGradient id="g" x1="0" y1="0" x2="1" y2="1">
      <stop offset="0%" stop-color="#2b6cb0"/>
      <stop offset="100%" stop-color="#805ad5"/>
    </linearGradient>
  </defs>
  <rect width="256" height="256" rx="28" fill="url(#g)"/>
  <g fill="#fff" transform="translate(28,28)">
    <circle cx="100" cy="100" r="64" fill="none" stroke="#fff" stroke-width="12" opacity="0.4"/>
    <path d="M100 28a72 72 0 1 1 0 144a72 72 0 1 1 0-144zm0 20a52 52 0 1 0 0 104a52 52 0 1 0 0-104z" fill="#fff" opacity="0.2"/>
    <path d="M72 116c0-24 18-44 40-44s40 20 40 44-18 44-40 44-40-20-40-44zm40-60l18 18-18 18-18-18 18-18z" fill="#fff"/>
    <text x="100" y="192" text-anchor="middle" font-family="Arial, Helvetica, sans-serif" font-size="28" font-weight="700" fill="#fff">B2C</text>
  </g>
</svg>
